<svg width="31" height="31" viewBox="0 0 31 31" fill="none" xmlns="http://www.w3.org/2000/svg">
<path d="M0.703125 10.5601C0.703125 5.03721 5.18028 0.560059 10.7031 0.560059H20.7031C26.226 0.560059 30.7031 5.03721 30.7031 10.5601V20.5601C30.7031 26.0829 26.226 30.5601 20.7031 30.5601H10.7031C5.18028 30.5601 0.703125 26.0829 0.703125 20.5601V10.5601Z" fill="#22B9FF"/>
<path d="M14.124 8.34399C13.7125 8.34399 13.3786 8.67797 13.3786 9.08948V9.83497H8.16016V11.3259H13.3786V12.0714C13.3786 12.4829 13.7125 12.8169 14.124 12.8169H14.8695C15.281 12.8169 15.615 12.4829 15.615 12.0714V9.08948C15.615 8.67797 15.281 8.34399 14.8695 8.34399H14.124ZM17.106 9.83497V11.3259H23.0699V9.83497H17.106ZM17.8515 13.5624C17.44 13.5624 17.106 13.8964 17.106 14.3079V15.0534H8.16016V16.5443H17.106V17.2898C17.106 17.7013 17.44 18.0353 17.8515 18.0353H18.597C19.0085 18.0353 19.3425 17.7013 19.3425 17.2898V14.3079C19.3425 13.8964 19.0085 13.5624 18.597 13.5624H17.8515ZM20.8334 15.0534V16.5443H23.0699V15.0534H20.8334ZM10.3966 18.7808C9.98511 18.7808 9.65113 19.1148 9.65113 19.5263V20.2718H8.16016V21.7627H9.65113V22.5082C9.65113 22.9197 9.98511 23.2537 10.3966 23.2537H11.1421C11.5536 23.2537 11.8876 22.9197 11.8876 22.5082V19.5263C11.8876 19.1148 11.5536 18.7808 11.1421 18.7808H10.3966ZM13.3786 20.2718V21.7627H23.0699V20.2718H13.3786Z" fill="white"/>
</svg>
