<svg width="252" height="153" viewBox="0 0 252 153" fill="none" xmlns="http://www.w3.org/2000/svg">
<rect x="0.488281" width="251" height="152.323" fill="white"/>
<rect x="0.841797" y="16.1621" width="250" height="120" fill="white"/>
<path d="M2.52148 44.2793C2.49023 43.2949 2.61003 42.4616 2.88086 41.7793C3.15169 41.097 3.54492 40.5788 4.06055 40.2246C4.58138 39.8704 5.19336 39.6934 5.89648 39.6934C6.38607 39.6934 6.85482 39.7949 7.30273 39.998C7.75065 40.2012 8.25846 40.5527 8.82617 41.0527C9.12826 41.3184 9.38346 41.5215 9.5918 41.6621C9.80013 41.7975 10.0397 41.8652 10.3105 41.8652C10.6803 41.8652 10.985 41.722 11.2246 41.4355C11.4642 41.1439 11.5762 40.6829 11.5605 40.0527H14.1074C14.1439 41.0423 14.0241 41.8783 13.748 42.5605C13.472 43.2428 13.0736 43.7611 12.5527 44.1152C12.0319 44.4694 11.4251 44.6465 10.7324 44.6465C10.2168 44.6465 9.73242 44.5397 9.2793 44.3262C8.83138 44.1074 8.33398 43.7585 7.78711 43.2793C7.46419 42.9928 7.20638 42.7871 7.01367 42.6621C6.82096 42.5319 6.5918 42.4668 6.32617 42.4668C5.95638 42.4668 5.65169 42.6074 5.41211 42.8887C5.17253 43.1647 5.06055 43.6283 5.07617 44.2793H2.52148ZM22.0268 52.1621V32.1621H23.308V52.1621H22.0268ZM25.4252 38.7637C25.3627 38.1335 25.0945 37.6439 24.6205 37.2949C24.1466 36.946 23.5034 36.7715 22.6909 36.7715C22.1388 36.7715 21.6726 36.8496 21.2924 37.0059C20.9122 37.1569 20.6205 37.3678 20.4174 37.6387C20.2195 37.9095 20.1205 38.2168 20.1205 38.5605C20.1101 38.847 20.17 39.097 20.3002 39.3105C20.4357 39.5241 20.6205 39.709 20.8549 39.8652C21.0893 40.0163 21.3601 40.1491 21.6674 40.2637C21.9747 40.373 22.3028 40.4668 22.6518 40.5449L24.0893 40.8887C24.7872 41.0449 25.4278 41.2533 26.0112 41.5137C26.5945 41.7741 27.0997 42.0944 27.5268 42.4746C27.9539 42.8548 28.2846 43.3027 28.519 43.8184C28.7586 44.334 28.881 44.9251 28.8862 45.5918C28.881 46.571 28.631 47.4199 28.1362 48.1387C27.6466 48.8522 26.9383 49.4069 26.0112 49.8027C25.0893 50.1934 23.9773 50.3887 22.6752 50.3887C21.3836 50.3887 20.2586 50.1908 19.3002 49.7949C18.3471 49.3991 17.6023 48.8132 17.0659 48.0371C16.5346 47.2559 16.256 46.2897 16.2299 45.1387H19.5034C19.5398 45.6751 19.6935 46.123 19.9643 46.4824C20.2403 46.8366 20.6075 47.1048 21.0659 47.2871C21.5294 47.4642 22.0528 47.5527 22.6362 47.5527C23.2091 47.5527 23.7065 47.4694 24.1284 47.3027C24.5554 47.1361 24.8862 46.9043 25.1205 46.6074C25.3549 46.3105 25.4721 45.9694 25.4721 45.584C25.4721 45.2246 25.3653 44.9225 25.1518 44.6777C24.9435 44.4329 24.6362 44.2246 24.2299 44.0527C23.8289 43.8809 23.3367 43.7246 22.7534 43.584L21.0112 43.1465C19.6622 42.8184 18.5971 42.3053 17.8159 41.6074C17.0346 40.9095 16.6466 39.9694 16.6518 38.7871C16.6466 37.8184 16.9044 36.972 17.4252 36.248C17.9513 35.5241 18.6726 34.959 19.5893 34.5527C20.506 34.1465 21.5476 33.9434 22.7143 33.9434C23.9018 33.9434 24.9383 34.1465 25.8237 34.5527C26.7143 34.959 27.407 35.5241 27.9018 36.248C28.3966 36.972 28.6518 37.8105 28.6674 38.7637H25.4252ZM41.1937 50.3809C40.027 50.3809 38.9879 50.1803 38.0765 49.7793C37.1702 49.373 36.4541 48.8158 35.928 48.1074C35.4072 47.3939 35.139 46.571 35.1234 45.6387H38.5296C38.5504 46.0293 38.678 46.373 38.9124 46.6699C39.152 46.9616 39.4697 47.1882 39.8655 47.3496C40.2614 47.5111 40.7067 47.5918 41.2015 47.5918C41.7171 47.5918 42.1728 47.5007 42.5687 47.3184C42.9645 47.1361 43.2744 46.8835 43.4984 46.5605C43.7223 46.2376 43.8343 45.8652 43.8343 45.4434C43.8343 45.0163 43.7145 44.6387 43.4749 44.3105C43.2405 43.9772 42.902 43.7168 42.4593 43.5293C42.0218 43.3418 41.501 43.248 40.8968 43.248H39.4046V40.7637H40.8968C41.4072 40.7637 41.8577 40.6751 42.2484 40.498C42.6442 40.321 42.9515 40.0762 43.1702 39.7637C43.389 39.446 43.4984 39.0762 43.4984 38.6543C43.4984 38.2533 43.402 37.9017 43.2093 37.5996C43.0218 37.2923 42.7562 37.0527 42.4124 36.8809C42.0739 36.709 41.678 36.623 41.2249 36.623C40.7666 36.623 40.3473 36.7064 39.9671 36.873C39.5869 37.0345 39.2822 37.2663 39.053 37.5684C38.8239 37.8704 38.7015 38.2246 38.6859 38.6309H35.4437C35.4593 37.709 35.7223 36.8965 36.2327 36.1934C36.7432 35.4902 37.4307 34.9408 38.2952 34.5449C39.165 34.1439 40.1468 33.9434 41.2405 33.9434C42.3447 33.9434 43.3109 34.1439 44.139 34.5449C44.9671 34.946 45.6103 35.4876 46.0687 36.1699C46.5322 36.847 46.7614 37.6074 46.7562 38.4512C46.7614 39.347 46.4827 40.0944 45.9202 40.6934C45.3629 41.2923 44.6364 41.6725 43.7405 41.834V41.959C44.9176 42.11 45.8135 42.5189 46.428 43.1855C47.0478 43.847 47.3551 44.6751 47.3499 45.6699C47.3551 46.5814 47.0921 47.3913 46.5609 48.0996C46.0348 48.8079 45.3083 49.3652 44.3812 49.7715C43.4541 50.1777 42.3916 50.3809 41.1937 50.3809ZM55.3103 50.3809C54.1072 50.3809 53.0369 50.1855 52.0994 49.7949C51.1671 49.3991 50.4353 48.86 49.9041 48.1777C49.3728 47.4954 49.1072 46.722 49.1072 45.8574C49.1072 45.1908 49.2582 44.5788 49.5603 44.0215C49.8676 43.459 50.2843 42.9928 50.8103 42.623C51.3364 42.248 51.9249 42.0085 52.5759 41.9043V41.7949C51.7218 41.623 51.0291 41.209 50.4978 40.5527C49.9666 39.8913 49.7009 39.123 49.7009 38.248C49.7009 37.4199 49.9431 36.6829 50.4275 36.0371C50.9119 35.3861 51.5759 34.8757 52.4197 34.5059C53.2686 34.1309 54.2322 33.9434 55.3103 33.9434C56.3884 33.9434 57.3494 34.1309 58.1931 34.5059C59.0421 34.8809 59.7088 35.3939 60.1931 36.0449C60.6775 36.6908 60.9223 37.4251 60.9275 38.248C60.9223 39.1283 60.6515 39.8965 60.115 40.5527C59.5785 41.209 58.891 41.623 58.0525 41.7949V41.9043C58.6931 42.0085 59.2739 42.248 59.7947 42.623C60.3207 42.9928 60.7374 43.459 61.0447 44.0215C61.3572 44.5788 61.516 45.1908 61.5213 45.8574C61.516 46.722 61.2478 47.4954 60.7166 48.1777C60.1853 48.86 59.4509 49.3991 58.5134 49.7949C57.5811 50.1855 56.5134 50.3809 55.3103 50.3809ZM55.3103 47.8965C55.8468 47.8965 56.3155 47.8001 56.7166 47.6074C57.1176 47.4095 57.4301 47.1387 57.6541 46.7949C57.8832 46.446 57.9978 46.0449 57.9978 45.5918C57.9978 45.1283 57.8806 44.7194 57.6463 44.3652C57.4119 44.0059 57.0942 43.7246 56.6931 43.5215C56.2921 43.3132 55.8311 43.209 55.3103 43.209C54.7947 43.209 54.3338 43.3132 53.9275 43.5215C53.5213 43.7246 53.2009 44.0059 52.9666 44.3652C52.7374 44.7194 52.6228 45.1283 52.6228 45.5918C52.6228 46.0449 52.7348 46.446 52.9588 46.7949C53.1827 47.1387 53.4978 47.4095 53.9041 47.6074C54.3103 47.8001 54.7791 47.8965 55.3103 47.8965ZM55.3103 40.748C55.7582 40.748 56.1567 40.6569 56.5056 40.4746C56.8546 40.2923 57.128 40.0397 57.3259 39.7168C57.5239 39.3939 57.6228 39.0215 57.6228 38.5996C57.6228 38.1829 57.5239 37.8184 57.3259 37.5059C57.128 37.1882 56.8572 36.9408 56.5134 36.7637C56.1697 36.5814 55.7686 36.4902 55.3103 36.4902C54.8572 36.4902 54.4561 36.5814 54.1072 36.7637C53.7582 36.9408 53.4848 37.1882 53.2869 37.5059C53.0942 37.8184 52.9978 38.1829 52.9978 38.5996C52.9978 39.0215 53.0968 39.3939 53.2947 39.7168C53.4926 40.0397 53.766 40.2923 54.115 40.4746C54.464 40.6569 54.8624 40.748 55.3103 40.748ZM69.7199 50.5137C68.3762 50.5085 67.2199 50.1777 66.2512 49.5215C65.2876 48.8652 64.5454 47.9147 64.0246 46.6699C63.509 45.4251 63.2538 43.9277 63.259 42.1777C63.259 40.4329 63.5168 38.946 64.0324 37.7168C64.5533 36.4876 65.2954 35.5527 66.259 34.9121C67.2277 34.2663 68.3814 33.9434 69.7199 33.9434C71.0585 33.9434 72.2095 34.2663 73.173 34.9121C74.1418 35.5579 74.8866 36.4954 75.4074 37.7246C75.9283 38.9486 76.1861 40.4329 76.1809 42.1777C76.1809 43.9329 75.9204 45.4329 75.3996 46.6777C74.884 47.9225 74.1444 48.873 73.1809 49.5293C72.2173 50.1855 71.0637 50.5137 69.7199 50.5137ZM69.7199 47.709C70.6366 47.709 71.3684 47.248 71.9152 46.3262C72.4621 45.4043 72.7329 44.0215 72.7277 42.1777C72.7277 40.9642 72.6027 39.9538 72.3527 39.1465C72.1079 38.3392 71.759 37.7324 71.3059 37.3262C70.8579 36.9199 70.3293 36.7168 69.7199 36.7168C68.8085 36.7168 68.0793 37.1725 67.5324 38.084C66.9855 38.9954 66.7095 40.36 66.7043 42.1777C66.7043 43.4069 66.8267 44.4329 67.0715 45.2559C67.3215 46.0736 67.673 46.6882 68.1262 47.0996C68.5793 47.5059 69.1105 47.709 69.7199 47.709ZM82.8985 34.1621H87.0704L91.4766 44.9121H91.6641L96.0704 34.1621H100.242V50.1621H96.961V39.748H96.8282L92.6876 50.084H90.4532L86.3126 39.709H86.1798V50.1621H82.8985V34.1621ZM105.855 43.2246V50.1621H102.527V38.1621H105.699V40.2793H105.839C106.105 39.5814 106.55 39.0293 107.175 38.623C107.8 38.2116 108.558 38.0059 109.449 38.0059C110.282 38.0059 111.009 38.1882 111.628 38.5527C112.248 38.9173 112.73 39.4382 113.074 40.1152C113.418 40.7871 113.589 41.5892 113.589 42.5215V50.1621H110.261V43.1152C110.266 42.3809 110.079 41.8079 109.699 41.3965C109.319 40.9798 108.795 40.7715 108.128 40.7715C107.681 40.7715 107.285 40.8678 106.941 41.0605C106.602 41.2533 106.337 41.5345 106.144 41.9043C105.957 42.2689 105.86 42.709 105.855 43.2246Z" fill="black"/>
<g clip-path="url(#clip0_10035_351205)">
<path opacity="0.301" d="M24.8418 60.1621H8.8418C6.63266 60.1621 4.8418 61.953 4.8418 64.1621V80.1621C4.8418 82.3712 6.63266 84.1621 8.8418 84.1621H24.8418C27.0509 84.1621 28.8418 82.3712 28.8418 80.1621V64.1621C28.8418 61.953 27.0509 60.1621 24.8418 60.1621Z" fill="#E0FADD"/>
<path d="M21.8659 71.1966L17.3659 66.7496C17.299 66.6771 17.2179 66.6192 17.1275 66.5796C17.0371 66.54 16.9396 66.5195 16.8409 66.5195C16.7422 66.5195 16.6447 66.54 16.5543 66.5796C16.4639 66.6192 16.3828 66.6771 16.3159 66.7496L11.8159 71.1966C11.6863 71.3287 11.6077 71.5024 11.594 71.6869C11.5802 71.8714 11.6323 72.0548 11.7409 72.2046C11.8018 72.2948 11.8825 72.3698 11.9768 72.424C12.0711 72.4782 12.1765 72.5101 12.285 72.5173C12.3936 72.5246 12.5023 72.5069 12.603 72.4657C12.7037 72.4245 12.7936 72.3609 12.8659 72.2796L16.0909 69.0666V76.9886C16.0909 77.1875 16.1699 77.3783 16.3106 77.5189C16.4512 77.6596 16.642 77.7386 16.8409 77.7386C17.0398 77.7386 17.2306 77.6596 17.3712 77.5189C17.5119 77.3783 17.5909 77.1875 17.5909 76.9886V69.0666L20.8159 72.2806C20.8882 72.3619 20.9781 72.4255 21.0788 72.4667C21.1795 72.5079 21.2882 72.5256 21.3967 72.5183C21.5053 72.5111 21.6107 72.4792 21.705 72.425C21.7993 72.3708 21.88 72.2958 21.9409 72.2056C22.0498 72.0557 22.102 71.8721 22.0883 71.6874C22.0745 71.5026 21.9957 71.3288 21.8659 71.1966Z" fill="#2CBE55" stroke="#2CBE55" stroke-width="0.5"/>
</g>
<path d="M43.7583 77.3113C42.9629 77.3113 42.2544 77.1745 41.633 76.9011C41.0151 76.6241 40.5268 76.2441 40.1681 75.7612C39.813 75.2747 39.6301 74.7136 39.6195 74.0779H41.9419C41.9561 74.3443 42.0431 74.5787 42.2029 74.7811C42.3663 74.9799 42.5829 75.1344 42.8528 75.2445C43.1227 75.3546 43.4263 75.4096 43.7637 75.4096C44.1152 75.4096 44.426 75.3475 44.6958 75.2232C44.9657 75.0989 45.177 74.9267 45.3297 74.7065C45.4824 74.4863 45.5588 74.2324 45.5588 73.9448C45.5588 73.6536 45.4771 73.3961 45.3137 73.1724C45.1539 72.9451 44.9231 72.7676 44.6213 72.6397C44.323 72.5119 43.9679 72.448 43.5559 72.448H42.5385V70.7541H43.5559C43.9039 70.7541 44.2111 70.6937 44.4775 70.573C44.7473 70.4522 44.9569 70.2853 45.106 70.0723C45.2551 69.8556 45.3297 69.6035 45.3297 69.3159C45.3297 69.0424 45.264 68.8027 45.1326 68.5968C45.0048 68.3873 44.8237 68.2239 44.5893 68.1067C44.3585 67.9895 44.0886 67.9309 43.7797 67.9309C43.4672 67.9309 43.1813 67.9877 42.9221 68.1014C42.6628 68.2115 42.4551 68.3695 42.2988 68.5755C42.1426 68.7814 42.0591 69.0229 42.0485 69.2999H39.8379C39.8485 68.6713 40.0279 68.1174 40.3759 67.638C40.7239 67.1586 41.1926 66.7839 41.7821 66.514C42.3752 66.2406 43.0446 66.1039 43.7903 66.1039C44.5431 66.1039 45.2019 66.2406 45.7665 66.514C46.3311 66.7875 46.7697 67.1568 47.0822 67.622C47.3983 68.0836 47.5545 68.6021 47.551 69.1774C47.5545 69.7882 47.3645 70.2978 46.981 70.7061C46.601 71.1145 46.1056 71.3738 45.4949 71.4838V71.5691C46.2974 71.6721 46.9082 71.9508 47.3272 72.4054C47.7498 72.8564 47.9593 73.421 47.9558 74.0993C47.9593 74.7207 47.78 75.2729 47.4178 75.7559C47.0591 76.2388 46.5637 76.6188 45.9316 76.8958C45.2995 77.1728 44.5751 77.3113 43.7583 77.3113ZM49.3137 77.1621V75.5002L53.1969 71.9047C53.5271 71.585 53.8041 71.2974 54.0279 71.0417C54.2551 70.786 54.4274 70.5357 54.5445 70.2907C54.6617 70.0421 54.7203 69.774 54.7203 69.4863C54.7203 69.1667 54.6475 68.8915 54.5019 68.6607C54.3563 68.4263 54.1575 68.247 53.9053 68.1227C53.6532 67.9949 53.3673 67.9309 53.0477 67.9309C52.7139 67.9309 52.4227 67.9984 52.1742 68.1333C51.9256 68.2683 51.7338 68.4618 51.5989 68.714C51.4639 68.9661 51.3965 69.2662 51.3965 69.6142H49.2072C49.2072 68.9004 49.3688 68.2807 49.6919 67.7551C50.0151 67.2296 50.4678 66.823 51.0502 66.5353C51.6326 66.2477 52.3038 66.1039 53.0637 66.1039C53.845 66.1039 54.525 66.2424 55.1039 66.5194C55.6862 66.7928 56.139 67.1728 56.4622 67.6593C56.7853 68.1458 56.9469 68.7033 56.9469 69.3319C56.9469 69.7438 56.8652 70.1504 56.7019 70.5517C56.5421 70.9529 56.2562 71.3986 55.8443 71.8887C55.4323 72.3752 54.8517 72.9593 54.1024 73.6412L52.5097 75.2019V75.2765H57.0907V77.1621H49.3137ZM59.8096 77.3006C59.4581 77.3006 59.1562 77.1763 58.9041 76.9277C58.6555 76.6756 58.5312 76.3738 58.5312 76.0222C58.5312 75.6742 58.6555 75.3759 58.9041 75.1273C59.1562 74.8787 59.4581 74.7544 59.8096 74.7544C60.1505 74.7544 60.4488 74.8787 60.7045 75.1273C60.9602 75.3759 61.088 75.6742 61.088 76.0222C61.088 76.2566 61.0277 76.4714 60.9069 76.6667C60.7897 76.8585 60.6353 77.013 60.4435 77.1301C60.2517 77.2438 60.0404 77.3006 59.8096 77.3006ZM66.0135 66.253V77.1621H63.7071V68.4423H63.6431L61.1449 70.0083V67.9629L63.8456 66.253H66.0135ZM74.2775 75.1167V74.5414C74.2775 74.1046 74.3699 73.7033 74.5545 73.3375C74.7427 72.9682 75.0144 72.6735 75.3695 72.4533C75.7282 72.2296 76.165 72.1177 76.6799 72.1177C77.2019 72.1177 77.6405 72.2278 77.9956 72.448C78.3542 72.6681 78.6241 72.9629 78.8052 73.3322C78.9899 73.698 79.0822 74.101 79.0822 74.5414V75.1167C79.0822 75.5534 78.9899 75.9565 78.8052 76.3258C78.6206 76.6916 78.3489 76.9846 77.9903 77.2047C77.6316 77.4284 77.1948 77.5403 76.6799 77.5403C76.1579 77.5403 75.7193 77.4284 75.3642 77.2047C75.0091 76.9846 74.7392 76.6916 74.5545 76.3258C74.3699 75.9565 74.2775 75.5534 74.2775 75.1167ZM75.8276 74.5414V75.1167C75.8276 75.3688 75.888 75.6067 76.0087 75.8304C76.133 76.0542 76.3567 76.166 76.6799 76.166C77.003 76.166 77.2232 76.0559 77.3404 75.8358C77.4611 75.6156 77.5215 75.3759 77.5215 75.1167V74.5414C77.5215 74.2821 77.4647 74.0407 77.351 73.8169C77.2374 73.5932 77.0137 73.4814 76.6799 73.4814C76.3603 73.4814 76.1383 73.5932 76.014 73.8169C75.8898 74.0407 75.8276 74.2821 75.8276 74.5414ZM68.6792 68.8738V68.2985C68.6792 67.8581 68.7733 67.4551 68.9615 67.0893C69.1497 66.72 69.4214 66.4252 69.7765 66.2051C70.1351 65.9849 70.5684 65.8748 71.0762 65.8748C71.6018 65.8748 72.0421 65.9849 72.3972 66.2051C72.7523 66.4252 73.0222 66.72 73.2069 67.0893C73.3915 67.4551 73.4839 67.8581 73.4839 68.2985V68.8738C73.4839 69.3141 73.3898 69.7172 73.2015 70.0829C73.0169 70.4487 72.7452 70.7417 72.3866 70.9618C72.0314 71.1784 71.5947 71.2868 71.0762 71.2868C70.5577 71.2868 70.1192 71.1767 69.7605 70.9565C69.4054 70.7328 69.1355 70.4398 68.9508 70.0776C68.7697 69.7118 68.6792 69.3105 68.6792 68.8738ZM70.2399 68.2985V68.8738C70.2399 69.133 70.3003 69.3727 70.421 69.5929C70.5453 69.813 70.7637 69.9231 71.0762 69.9231C71.4029 69.9231 71.6248 69.813 71.742 69.5929C71.8628 69.3727 71.9231 69.133 71.9231 68.8738V68.2985C71.9231 68.0392 71.8663 67.7978 71.7527 67.574C71.639 67.3503 71.4135 67.2385 71.0762 67.2385C70.7601 67.2385 70.5417 67.3521 70.421 67.5794C70.3003 67.8066 70.2399 68.0463 70.2399 68.2985ZM69.3823 77.1621L76.8823 66.253H78.2779L70.7779 77.1621H69.3823Z" fill="#2CBE55"/>
<path d="M1.37447 93.1547V91.253H10.334V93.1547H6.99414V102.162H4.71431V93.1547H1.37447ZM13.9771 102.322C13.1497 102.322 12.4341 102.146 11.8304 101.795C11.2303 101.439 10.7669 100.946 10.4401 100.314C10.1134 99.6781 9.95009 98.9412 9.95009 98.1032C9.95009 97.258 10.1134 96.5194 10.4401 95.8873C10.7669 95.2516 11.2303 94.758 11.8304 94.4064C12.4341 94.0513 13.1497 93.8738 13.9771 93.8738C14.8045 93.8738 15.5183 94.0513 16.1184 94.4064C16.7221 94.758 17.1873 95.2516 17.514 95.8873C17.8407 96.5194 18.0041 97.258 18.0041 98.1032C18.0041 98.9412 17.8407 99.6781 17.514 100.314C17.1873 100.946 16.7221 101.439 16.1184 101.795C15.5183 102.146 14.8045 102.322 13.9771 102.322ZM13.9877 100.564C14.3642 100.564 14.6784 100.458 14.9306 100.244C15.1827 100.028 15.3727 99.7331 15.5005 99.3603C15.6319 98.9874 15.6976 98.563 15.6976 98.0872C15.6976 97.6113 15.6319 97.187 15.5005 96.8141C15.3727 96.4412 15.1827 96.1465 14.9306 95.9299C14.6784 95.7132 14.3642 95.6049 13.9877 95.6049C13.6078 95.6049 13.2882 95.7132 13.0289 95.9299C12.7732 96.1465 12.5797 96.4412 12.4483 96.8141C12.3205 97.187 12.2566 97.6113 12.2566 98.0872C12.2566 98.563 12.3205 98.9874 12.4483 99.3603C12.5797 99.7331 12.7732 100.028 13.0289 100.244C13.2882 100.458 13.6078 100.564 13.9877 100.564ZM23.5315 93.9803V95.6848H18.6043V93.9803H23.5315ZM19.7229 92.0201H21.9921V99.6479C21.9921 99.8574 22.024 100.021 22.0879 100.138C22.1519 100.252 22.2406 100.331 22.3543 100.378C22.4715 100.424 22.6064 100.447 22.7591 100.447C22.8656 100.447 22.9722 100.438 23.0787 100.42C23.1852 100.399 23.2669 100.383 23.3237 100.372L23.6806 102.061C23.567 102.096 23.4072 102.137 23.2012 102.183C22.9953 102.233 22.7449 102.263 22.4502 102.274C21.9033 102.295 21.4239 102.222 21.0119 102.056C20.6036 101.889 20.2857 101.629 20.0585 101.278C19.8312 100.926 19.7193 100.482 19.7229 99.9462V92.0201ZM27.0427 102.317C26.5207 102.317 26.0555 102.226 25.6471 102.045C25.2388 101.86 24.9156 101.589 24.6777 101.23C24.4433 100.868 24.3261 100.417 24.3261 99.877C24.3261 99.4224 24.4096 99.0407 24.5765 98.7317C24.7434 98.4228 24.9707 98.1742 25.2583 97.986C25.5459 97.7978 25.8726 97.6557 26.2384 97.5598C26.6077 97.464 26.9948 97.3965 27.3996 97.3574C27.8755 97.3077 28.259 97.2615 28.5502 97.2189C28.8414 97.1728 29.0527 97.1053 29.1841 97.0165C29.3155 96.9277 29.3812 96.7963 29.3812 96.6223V96.5904C29.3812 96.253 29.2746 95.992 29.0616 95.8074C28.852 95.6227 28.5537 95.5304 28.1667 95.5304C27.7583 95.5304 27.4334 95.6209 27.1919 95.802C26.9504 95.9796 26.7906 96.2033 26.7125 96.4732L24.6138 96.3027C24.7203 95.8056 24.9298 95.3759 25.2423 95.0137C25.5548 94.6479 25.9579 94.3674 26.4515 94.1721C26.9486 93.9732 27.5239 93.8738 28.1773 93.8738C28.6319 93.8738 29.0669 93.927 29.4824 94.0336C29.9014 94.1401 30.2725 94.3052 30.5957 94.5289C30.9224 94.7527 31.1798 95.0403 31.368 95.3919C31.5562 95.7399 31.6503 96.1571 31.6503 96.6436V102.162H29.4983V101.028H29.4344C29.303 101.283 29.1273 101.509 28.9071 101.704C28.6869 101.896 28.4224 102.047 28.1134 102.157C27.8045 102.263 27.4476 102.317 27.0427 102.317ZM27.6926 100.751C28.0264 100.751 28.3211 100.685 28.5768 100.553C28.8325 100.419 29.0332 100.237 29.1787 100.01C29.3243 99.7828 29.3971 99.5254 29.3971 99.2377V98.3695C29.3261 98.4157 29.2285 98.4583 29.1042 98.4973C28.9834 98.5328 28.8467 98.5666 28.694 98.5985C28.5413 98.627 28.3886 98.6536 28.2359 98.6784C28.0832 98.6998 27.9447 98.7193 27.8204 98.737C27.5541 98.7761 27.3215 98.8382 27.1226 98.9235C26.9238 99.0087 26.7693 99.1241 26.6592 99.2697C26.5491 99.4118 26.4941 99.5893 26.4941 99.8024C26.4941 100.111 26.6059 100.347 26.8297 100.511C27.0569 100.671 27.3446 100.751 27.6926 100.751ZM35.38 91.253V102.162H33.1108V91.253H35.38ZM41.9923 102.162H39.5208L43.2867 91.253H46.259L50.0197 102.162H47.5481L44.8155 93.7459H44.7303L41.9923 102.162ZM41.8379 97.8741H47.6759V99.6745H41.8379V97.8741ZM53.6242 102.295C53.0027 102.295 52.4399 102.135 51.9356 101.816C51.4349 101.493 51.0372 101.019 50.7424 100.394C50.4512 99.7651 50.3056 98.9945 50.3056 98.0819C50.3056 97.1444 50.4566 96.3649 50.7584 95.7434C51.0602 95.1184 51.4615 94.6515 51.9622 94.3425C52.4665 94.03 53.0187 93.8738 53.6188 93.8738C54.0769 93.8738 54.4587 93.9519 54.7641 94.1081C55.073 94.2608 55.3216 94.4526 55.5098 94.6834C55.7016 94.9107 55.8472 95.1344 55.9466 95.3546H56.0159V91.253H58.2797V102.162H56.0425V100.852H55.9466C55.8401 101.079 55.6892 101.305 55.4938 101.528C55.3021 101.748 55.0517 101.931 54.7428 102.077C54.4374 102.222 54.0645 102.295 53.6242 102.295ZM54.3433 100.49C54.709 100.49 55.018 100.39 55.2701 100.191C55.5258 99.9888 55.7211 99.7065 55.8561 99.3443C55.9946 98.9821 56.0638 98.5577 56.0638 98.0712C56.0638 97.5847 55.9963 97.1621 55.8614 96.8034C55.7264 96.4448 55.5311 96.1678 55.2754 95.9725C55.0198 95.7772 54.709 95.6795 54.3433 95.6795C53.9704 95.6795 53.6561 95.7807 53.4004 95.9831C53.1448 96.1855 52.9512 96.4661 52.8198 96.8248C52.6884 97.1834 52.6227 97.5989 52.6227 98.0712C52.6227 98.5471 52.6884 98.9679 52.8198 99.3336C52.9548 99.6958 53.1483 99.9799 53.4004 100.186C53.6561 100.388 53.9704 100.49 54.3433 100.49ZM65.0306 91.253L67.6673 99.5414H67.7685L70.4105 91.253H72.9673L69.2067 102.162H66.2344L62.4684 91.253H65.0306ZM75.3627 102.317C74.8406 102.317 74.3754 102.226 73.9671 102.045C73.5587 101.86 73.2355 101.589 72.9976 101.23C72.7632 100.868 72.646 100.417 72.646 99.877C72.646 99.4224 72.7295 99.0407 72.8964 98.7317C73.0633 98.4228 73.2906 98.1742 73.5782 97.986C73.8659 97.7978 74.1926 97.6557 74.5583 97.5598C74.9276 97.464 75.3147 97.3965 75.7195 97.3574C76.1954 97.3077 76.5789 97.2615 76.8701 97.2189C77.1613 97.1728 77.3726 97.1053 77.504 97.0165C77.6354 96.9277 77.7011 96.7963 77.7011 96.6223V96.5904C77.7011 96.253 77.5945 95.992 77.3815 95.8074C77.172 95.6227 76.8737 95.5304 76.4866 95.5304C76.0782 95.5304 75.7533 95.6209 75.5118 95.802C75.2703 95.9796 75.1105 96.2033 75.0324 96.4732L72.9337 96.3027C73.0402 95.8056 73.2497 95.3759 73.5622 95.0137C73.8747 94.6479 74.2778 94.3674 74.7714 94.1721C75.2686 93.9732 75.8438 93.8738 76.4972 93.8738C76.9518 93.8738 77.3868 93.927 77.8023 94.0336C78.2213 94.1401 78.5924 94.3052 78.9156 94.5289C79.2423 94.7527 79.4997 95.0403 79.6879 95.3919C79.8762 95.7399 79.9703 96.1571 79.9703 96.6436V102.162H77.8183V101.028H77.7544C77.623 101.283 77.4472 101.509 77.227 101.704C77.0068 101.896 76.7423 102.047 76.4333 102.157C76.1244 102.263 75.7675 102.317 75.3627 102.317ZM76.0125 100.751C76.3463 100.751 76.6411 100.685 76.8968 100.553C77.1524 100.419 77.3531 100.237 77.4987 100.01C77.6443 99.7828 77.7171 99.5254 77.7171 99.2377V98.3695C77.646 98.4157 77.5484 98.4583 77.4241 98.4973C77.3034 98.5328 77.1666 98.5666 77.0139 98.5985C76.8612 98.627 76.7085 98.6536 76.5558 98.6784C76.4031 98.6998 76.2646 98.7193 76.1404 98.737C75.874 98.7761 75.6414 98.8382 75.4426 98.9235C75.2437 99.0087 75.0892 99.1241 74.9791 99.2697C74.8691 99.4118 74.814 99.5893 74.814 99.8024C74.814 100.111 74.9259 100.347 75.1496 100.511C75.3769 100.671 75.6645 100.751 76.0125 100.751ZM83.6999 91.253V102.162H81.4307V91.253H83.6999ZM90.4645 98.6784V93.9803H92.7336V102.162H90.555V100.676H90.4698C90.2851 101.155 89.9779 101.541 89.5483 101.832C89.1221 102.123 88.6019 102.269 87.9875 102.269C87.4407 102.269 86.9595 102.144 86.544 101.896C86.1285 101.647 85.8036 101.294 85.5692 100.836C85.3384 100.378 85.2212 99.829 85.2177 99.1898V93.9803H87.4868V98.785C87.4904 99.2679 87.62 99.6497 87.8757 99.9302C88.1314 100.211 88.474 100.351 88.9037 100.351C89.1772 100.351 89.4328 100.289 89.6708 100.165C89.9087 100.037 90.1005 99.8485 90.2461 99.6C90.3952 99.3514 90.468 99.0442 90.4645 98.6784ZM97.9774 102.322C97.1358 102.322 96.4113 102.151 95.8041 101.811C95.2004 101.466 94.7352 100.98 94.4085 100.351C94.0818 99.7189 93.9184 98.9714 93.9184 98.1085C93.9184 97.2669 94.0818 96.5282 94.4085 95.8926C94.7352 95.2569 95.1951 94.7615 95.7881 94.4064C96.3847 94.0513 97.0843 93.8738 97.8868 93.8738C98.4266 93.8738 98.9291 93.9608 99.3943 94.1348C99.863 94.3052 100.271 94.5627 100.619 94.9071C100.971 95.2516 101.244 95.6848 101.44 96.2069C101.635 96.7253 101.733 97.3326 101.733 98.0286V98.6518H94.824V97.2456H99.5967C99.5967 96.9189 99.5257 96.6294 99.3836 96.3773C99.2416 96.1252 99.0445 95.9281 98.7924 95.786C98.5438 95.6404 98.2544 95.5676 97.9241 95.5676C97.5797 95.5676 97.2743 95.6475 97.0079 95.8074C96.7452 95.9636 96.5392 96.1749 96.39 96.4412C96.2409 96.704 96.1645 96.997 96.161 97.3201V98.6571C96.161 99.062 96.2356 99.4118 96.3847 99.7065C96.5374 100.001 96.7523 100.229 97.0292 100.388C97.3062 100.548 97.6347 100.628 98.0147 100.628C98.2668 100.628 98.4976 100.593 98.7072 100.521C98.9167 100.45 99.096 100.344 99.2452 100.202C99.3943 100.06 99.5079 99.8858 99.5861 99.6799L101.685 99.8184C101.578 100.323 101.36 100.763 101.03 101.139C100.703 101.512 100.28 101.803 99.7618 102.013C99.2469 102.219 98.6521 102.322 97.9774 102.322ZM106.128 102.162V91.253H113.479V93.1547H108.434V95.7541H113.1V97.6557H108.434V100.26H113.5V102.162H106.128ZM120.376 105.23V100.852H120.307C120.201 101.079 120.05 101.305 119.854 101.528C119.663 101.748 119.412 101.931 119.103 102.077C118.798 102.222 118.425 102.295 117.985 102.295C117.363 102.295 116.8 102.135 116.296 101.816C115.795 101.493 115.398 101.019 115.103 100.394C114.812 99.7651 114.666 98.9945 114.666 98.0819C114.666 97.1444 114.817 96.3649 115.119 95.7434C115.421 95.1184 115.822 94.6515 116.323 94.3425C116.827 94.03 117.379 93.8738 117.979 93.8738C118.437 93.8738 118.819 93.9519 119.125 94.1081C119.434 94.2608 119.682 94.4526 119.87 94.6834C120.062 94.9107 120.208 95.1344 120.307 95.3546H120.403V93.9803H122.64V105.23H120.376ZM118.704 100.49C119.07 100.49 119.379 100.39 119.631 100.191C119.886 99.9888 120.082 99.7065 120.217 99.3443C120.355 98.9821 120.424 98.5577 120.424 98.0712C120.424 97.5847 120.357 97.1621 120.222 96.8034C120.087 96.4448 119.892 96.1678 119.636 95.9725C119.38 95.7772 119.07 95.6795 118.704 95.6795C118.331 95.6795 118.017 95.7807 117.761 95.9831C117.505 96.1855 117.312 96.4661 117.18 96.8248C117.049 97.1834 116.983 97.5989 116.983 98.0712C116.983 98.5471 117.049 98.9679 117.18 99.3336C117.315 99.6958 117.509 99.9799 117.761 100.186C118.017 100.388 118.331 100.49 118.704 100.49ZM129.409 98.6784V93.9803H131.678V102.162H129.499V100.676H129.414C129.229 101.155 128.922 101.541 128.493 101.832C128.066 102.123 127.546 102.269 126.932 102.269C126.385 102.269 125.904 102.144 125.488 101.896C125.073 101.647 124.748 101.294 124.514 100.836C124.283 100.378 124.166 99.829 124.162 99.1898V93.9803H126.431V98.785C126.435 99.2679 126.564 99.6497 126.82 99.9302C127.076 100.211 127.418 100.351 127.848 100.351C128.122 100.351 128.377 100.289 128.615 100.165C128.853 100.037 129.045 99.8485 129.19 99.6C129.34 99.3514 129.412 99.0442 129.409 98.6784ZM133.193 102.162V93.9803H135.462V102.162H133.193ZM134.333 92.9256C133.996 92.9256 133.706 92.8137 133.465 92.59C133.227 92.3627 133.108 92.0911 133.108 91.775C133.108 91.4625 133.227 91.1944 133.465 90.9707C133.706 90.7434 133.996 90.6298 134.333 90.6298C134.67 90.6298 134.958 90.7434 135.196 90.9707C135.437 91.1944 135.558 91.4625 135.558 91.775C135.558 92.0911 135.437 92.3627 135.196 92.59C134.958 92.8137 134.67 92.9256 134.333 92.9256ZM144.608 93.9803L141.747 102.162H139.191L136.33 93.9803H138.727L140.426 99.8343H140.512L142.205 93.9803H144.608ZM147.582 102.317C147.06 102.317 146.595 102.226 146.187 102.045C145.778 101.86 145.455 101.589 145.217 101.23C144.983 100.868 144.866 100.417 144.866 99.877C144.866 99.4224 144.949 99.0407 145.116 98.7317C145.283 98.4228 145.51 98.1742 145.798 97.986C146.086 97.7978 146.412 97.6557 146.778 97.5598C147.147 97.464 147.534 97.3965 147.939 97.3574C148.415 97.3077 148.799 97.2615 149.09 97.2189C149.381 97.1728 149.592 97.1053 149.724 97.0165C149.855 96.9277 149.921 96.7963 149.921 96.6223V96.5904C149.921 96.253 149.814 95.992 149.601 95.8074C149.392 95.6227 149.093 95.5304 148.706 95.5304C148.298 95.5304 147.973 95.6209 147.732 95.802C147.49 95.9796 147.33 96.2033 147.252 96.4732L145.153 96.3027C145.26 95.8056 145.469 95.3759 145.782 95.0137C146.094 94.6479 146.498 94.3674 146.991 94.1721C147.488 93.9732 148.064 93.8738 148.717 93.8738C149.172 93.8738 149.607 93.927 150.022 94.0336C150.441 94.1401 150.812 94.3052 151.135 94.5289C151.462 94.7527 151.719 95.0403 151.908 95.3919C152.096 95.7399 152.19 96.1571 152.19 96.6436V102.162H150.038V101.028H149.974C149.843 101.283 149.667 101.509 149.447 101.704C149.227 101.896 148.962 102.047 148.653 102.157C148.344 102.263 147.987 102.317 147.582 102.317ZM148.232 100.751C148.566 100.751 148.861 100.685 149.116 100.553C149.372 100.419 149.573 100.237 149.718 100.01C149.864 99.7828 149.937 99.5254 149.937 99.2377V98.3695C149.866 98.4157 149.768 98.4583 149.644 98.4973C149.523 98.5328 149.386 98.5666 149.234 98.5985C149.081 98.627 148.928 98.6536 148.776 98.6784C148.623 98.6998 148.484 98.7193 148.36 98.737C148.094 98.7761 147.861 98.8382 147.662 98.9235C147.463 99.0087 147.309 99.1241 147.199 99.2697C147.089 99.4118 147.034 99.5893 147.034 99.8024C147.034 100.111 147.146 100.347 147.369 100.511C147.597 100.671 147.884 100.751 148.232 100.751ZM155.92 91.253V102.162H153.65V91.253H155.92ZM161.166 102.322C160.324 102.322 159.6 102.151 158.993 101.811C158.389 101.466 157.924 100.98 157.597 100.351C157.27 99.7189 157.107 98.9714 157.107 98.1085C157.107 97.2669 157.27 96.5282 157.597 95.8926C157.924 95.2569 158.384 94.7615 158.977 94.4064C159.573 94.0513 160.273 93.8738 161.076 93.8738C161.615 93.8738 162.118 93.9608 162.583 94.1348C163.052 94.3052 163.46 94.5627 163.808 94.9071C164.16 95.2516 164.433 95.6848 164.628 96.2069C164.824 96.7253 164.921 97.3326 164.921 98.0286V98.6518H158.013V97.2456H162.785C162.785 96.9189 162.714 96.6294 162.572 96.3773C162.43 96.1252 162.233 95.9281 161.981 95.786C161.732 95.6404 161.443 95.5676 161.113 95.5676C160.768 95.5676 160.463 95.6475 160.197 95.8074C159.934 95.9636 159.728 96.1749 159.579 96.4412C159.43 96.704 159.353 96.997 159.35 97.3201V98.6571C159.35 99.062 159.424 99.4118 159.573 99.7065C159.726 100.001 159.941 100.229 160.218 100.388C160.495 100.548 160.823 100.628 161.203 100.628C161.455 100.628 161.686 100.593 161.896 100.521C162.105 100.45 162.285 100.344 162.434 100.202C162.583 100.06 162.697 99.8858 162.775 99.6799L164.873 99.8184C164.767 100.323 164.549 100.763 164.218 101.139C163.892 101.512 163.469 101.803 162.951 102.013C162.436 102.219 161.841 102.322 161.166 102.322ZM168.371 97.432V102.162H166.102V93.9803H168.265V95.4238H168.361C168.542 94.948 168.845 94.5716 169.272 94.2946C169.698 94.014 170.214 93.8738 170.822 93.8738C171.39 93.8738 171.885 93.998 172.308 94.2466C172.73 94.4952 173.059 94.8503 173.293 95.312C173.528 95.7701 173.645 96.3169 173.645 96.9526V102.162H171.376V97.3574C171.379 96.8567 171.251 96.4661 170.992 96.1855C170.733 95.9015 170.376 95.7594 169.921 95.7594C169.616 95.7594 169.346 95.8251 169.112 95.9565C168.881 96.0879 168.7 96.2797 168.568 96.5318C168.441 96.7804 168.375 97.0804 168.371 97.432ZM178.83 102.322C177.992 102.322 177.271 102.144 176.667 101.789C176.067 101.431 175.606 100.933 175.282 100.298C174.963 99.6621 174.803 98.9306 174.803 98.1032C174.803 97.2651 174.965 96.53 175.288 95.8979C175.614 95.2623 176.078 94.7669 176.678 94.4118C177.278 94.0531 177.992 93.8738 178.819 93.8738C179.533 93.8738 180.158 94.0034 180.694 94.2626C181.231 94.5218 181.655 94.8858 181.967 95.3546C182.28 95.8233 182.452 96.3738 182.484 97.0059H180.343C180.282 96.5975 180.123 96.269 179.863 96.0204C179.608 95.7683 179.272 95.6422 178.857 95.6422C178.505 95.6422 178.198 95.7381 177.935 95.9299C177.676 96.1181 177.473 96.3933 177.328 96.7555C177.182 97.1177 177.109 97.5563 177.109 98.0712C177.109 98.5932 177.181 99.0371 177.323 99.4029C177.468 99.7686 177.672 100.047 177.935 100.239C178.198 100.431 178.505 100.527 178.857 100.527C179.116 100.527 179.348 100.474 179.554 100.367C179.764 100.26 179.936 100.106 180.071 99.9036C180.21 99.6976 180.3 99.4508 180.343 99.1632H182.484C182.449 99.7882 182.278 100.339 181.973 100.814C181.671 101.287 181.254 101.656 180.721 101.922C180.188 102.189 179.558 102.322 178.83 102.322ZM185.038 105.23C184.75 105.23 184.48 105.207 184.228 105.161C183.98 105.118 183.774 105.063 183.61 104.996L184.122 103.302C184.388 103.384 184.628 103.428 184.841 103.435C185.057 103.442 185.244 103.393 185.4 103.286C185.56 103.18 185.69 102.998 185.789 102.743L185.922 102.396L182.987 93.9803H185.373L187.067 99.9888H187.153L188.862 93.9803H191.265L188.085 103.046C187.932 103.487 187.724 103.87 187.462 104.197C187.202 104.527 186.874 104.781 186.476 104.959C186.078 105.14 185.599 105.23 185.038 105.23ZM2.24805 114.708C2.24805 113.387 2.42383 112.17 2.77539 111.059C3.1305 109.947 3.67205 108.917 4.40004 107.969H6.568C6.29102 108.321 6.03356 108.751 5.79563 109.258C5.55771 109.763 5.34996 110.317 5.17241 110.92C4.99485 111.524 4.85636 112.149 4.75692 112.795C4.65749 113.438 4.60778 114.075 4.60778 114.708C4.60778 115.549 4.693 116.4 4.86346 117.259C5.03746 118.115 5.27184 118.91 5.56658 119.645C5.86488 120.381 6.19869 120.982 6.568 121.451H4.40004C3.67205 120.503 3.1305 119.473 2.77539 118.362C2.42383 117.25 2.24805 116.032 2.24805 114.708ZM9.50797 120.162H7.03638L10.8024 109.253H13.7747L17.5353 120.162H15.0637L12.3311 111.746H12.2459L9.50797 120.162ZM9.3535 115.874H15.1916V117.675H9.3535V115.874ZM19.1569 109.253L21.7936 117.541H21.8949L24.5369 109.253H27.0937L23.3331 120.162H20.3608L16.5948 109.253H19.1569ZM28.1067 120.162V109.253H35.4576V111.155H30.4132V113.754H35.0794V115.656H30.4132V118.26H35.4789V120.162H28.1067ZM40.7733 114.708C40.7733 116.032 40.5957 117.25 40.2406 118.362C39.889 119.473 39.3493 120.503 38.6213 121.451H36.4533C36.7303 121.1 36.9878 120.67 37.2257 120.162C37.4636 119.654 37.6714 119.1 37.8489 118.5C38.0265 117.896 38.165 117.271 38.2644 116.625C38.3638 115.979 38.4135 115.34 38.4135 114.708C38.4135 113.866 38.3265 113.017 38.1525 112.161C37.9821 111.302 37.7477 110.507 37.4494 109.775C37.1547 109.04 36.8226 108.438 36.4533 107.969H38.6213C39.3493 108.917 39.889 109.947 40.2406 111.059C40.5957 112.17 40.7733 113.387 40.7733 114.708Z" fill="#F54A80"/>
<defs>
<clipPath id="clip0_10035_351205">
<rect width="24" height="24" fill="white" transform="translate(4.8418 60.1621)"/>
</clipPath>
</defs>
</svg>
